<?xml version="1.0" encoding="UTF-8"?>
<!-- Generated by jsxcad -->
<!DOCTYPE svg PUBLIC "-//W3C//DTD SVG 1.1 Tiny//EN" "http://www.w3.org/Graphics/SVG/1.1/DTD/svg11-tiny.dtd">
<svg baseProfile="tiny" height="12.000000000000009mm" width="46.00000000000003mm" viewBox="-23.000000000000014 -3.0000000000000018 46.00000000000003 12.000000000000009" version="1.1" stroke="black" stroke-width=".1" fill="none" xmlns="http://www.w3.org/2000/svg">
<path fill="#000000" stroke="#000000" d="M-21.049038105676654 0.7500000000000004 L-21.049038105676654 0.7500000000000004 L-19.749999999999996 1.5000000000000009 L-19.749999999999996 1.5000000000000009 z"/>
<path fill="#000000" stroke="#000000" d="M-21.049038105676658 -0.7499999999999999 L-21.049038105676658 -0.7499999999999999 L-21.049038105676658 0.7500000000000002 L-21.049038105676658 0.7500000000000002 z"/>
<path fill="#000000" stroke="#000000" d="M-18.450961894323342 0.7499999999999999 L-18.450961894323342 0.7499999999999999 L-18.450961894323342 -0.7499999999999999 L-18.450961894323342 -0.7499999999999999 z"/>
<path fill="#000000" stroke="#000000" d="M-19.749999999999996 1.4999999999999991 L-19.749999999999996 1.4999999999999991 L-18.45096189432334 0.7499999999999983 L-18.45096189432334 0.7499999999999983 z"/>
<path fill="#000000" stroke="#000000" d="M-19.749999999999996 -1.5000000000000009 L-19.749999999999996 -1.5000000000000009 L-21.049038105676654 -0.7500000000000001 L-21.049038105676654 -0.7500000000000001 z"/>
<path fill="#000000" stroke="#000000" d="M-18.45096189432334 -0.7499999999999983 L-18.45096189432334 -0.7499999999999983 L-19.749999999999996 -1.4999999999999991 L-19.749999999999996 -1.4999999999999991 z"/>
<path fill="#000000" stroke="#000000" d="M-23 3 L23 3 L23 3 L-23 3 z"/>
<path fill="#000000" stroke="#000000" d="M-23 -3 L-23 3 L-23 3 L-23 -3 z"/>
<path fill="#000000" stroke="#000000" d="M23 -3 L-23 -3 L-23 -3 L23 -3 z"/>
<path fill="#000000" stroke="#000000" d="M23 3 L23 -3 L23 -3 L23 3 z"/>
<path fill="#000000" stroke="#000000" d="M-23 2.9999999999999996 L23 2.9999999999999996 L23 -2.9999999999999996 L-23 -2.9999999999999996 M-21.049038105676658 0.7500000000000001 L-21.049038105676658 -0.7499999999999998 L-19.749999999999996 -1.4999999999999998 L-18.450961894323342 -0.7499999999999998 L-18.450961894323342 0.7499999999999998 L-19.749999999999996 1.4999999999999998 z"/>
<path fill="#000000" stroke="#000000" d="M23 2.9999999999999996 L-23 2.9999999999999996 L-23 -2.9999999999999996 L23 -2.9999999999999996 M-21.049038105676658 0.7500000000000001 L-19.749999999999996 1.4999999999999998 L-18.450961894323342 0.7499999999999998 L-18.450961894323342 -0.7499999999999998 L-19.749999999999996 -1.4999999999999998 L-21.049038105676658 -0.7499999999999998 z"/>
<path fill="#000000" stroke="#000000" d="M6.5 3 L23 3 L23 3 L6.5 3 z"/>
<path fill="#000000" stroke="#000000" d="M6.5 -9 L6.5 3 L6.5 3 L6.5 -9 z"/>
<path fill="#000000" stroke="#000000" d="M23 3 L23 -9 L23 -9 L23 3 z"/>
<path fill="#000000" stroke="#000000" d="M23 -9 L6.5 -9 L6.5 -9 L23 -9 z"/>
<path fill="#000000" stroke="#000000" d="M6.5 -8.999999999999998 L6.5 2.9999999999999996 L23 2.9999999999999996 L23 -8.999999999999998 z"/>
<path fill="#000000" stroke="#000000" d="M6.5 2.9999999999999996 L6.5 -8.999999999999998 L23 -8.999999999999998 L23 2.9999999999999996 z"/>
</svg>