<?xml version="1.0" encoding="UTF-8"?>
<!-- Generated by jsxcad -->
<!DOCTYPE svg PUBLIC "-//W3C//DTD SVG 1.1 Tiny//EN" "http://www.w3.org/Graphics/SVG/1.1/DTD/svg11-tiny.dtd">
<svg baseProfile="tiny" height="12.000000000000009mm" width="46.00000000000003mm" viewBox="0 0 46.00000000000003 12.000000000000009" version="1.1" stroke="black" stroke-width=".1" fill="none" xmlns="http://www.w3.org/2000/svg">
<path fill="#4682b4" stroke="#4682b4" d="M0 9 L0 3 L46 3 L46 9 z"/>
<path fill="#4682b4" stroke="#4682b4" d="M0 3.0000000000000044 L0 3.0000000000000044 L46 3.0000000000000044 L46 3.0000000000000044 z"/>
<path fill="#4682b4" stroke="#4682b4" d="M46.000000000000014 9 L46.000000000000014 9 L46.000000000000014 3 L46.000000000000014 3 z"/>
<path fill="#4682b4" stroke="#4682b4" d="M0 9.000000000000004 L0 9.000000000000004 L46 9.000000000000004 L46 9.000000000000004 z"/>
<path fill="#4682b4" stroke="#4682b4" d="M1.4210854715202004e-14 9 L1.4210854715202004e-14 9 L1.4210854715202004e-14 3 L1.4210854715202004e-14 3 z"/>
<path fill="#4682b4" stroke="#4682b4" d="M0 3 L0 9 L46 9 L46 3 z"/>
<path fill="#4682b4" stroke="#4682b4" d="M46 9 L29.5 9 L29.5 -3 L46 -3 z"/>
<path fill="#4682b4" stroke="#4682b4" d="M46.000000000000014 9 L46.000000000000014 9 L46.000000000000014 -3 L46.000000000000014 -3 z"/>
<path fill="#4682b4" stroke="#4682b4" d="M46 -2.9999999999999956 L46 -2.9999999999999956 L29.5 -2.9999999999999956 L29.5 -2.9999999999999956 z"/>
<path fill="#4682b4" stroke="#4682b4" d="M29.500000000000014 9 L29.500000000000014 9 L29.500000000000014 -3 L29.500000000000014 -3 z"/>
<path fill="#4682b4" stroke="#4682b4" d="M29.5 9.000000000000004 L29.5 9.000000000000004 L46 9.000000000000004 L46 9.000000000000004 z"/>
<path fill="#4682b4" stroke="#4682b4" d="M29.5 9 L46 9 L46 -3 L29.5 -3 z"/>
</svg>