<?xml version="1.0" encoding="UTF-8"?>
<!-- Generated by jsxcad -->
<!DOCTYPE svg PUBLIC "-//W3C//DTD SVG 1.1 Tiny//EN" "http://www.w3.org/Graphics/SVG/1.1/DTD/svg11-tiny.dtd">
<svg baseProfile="tiny" height="12.000000000000009mm" width="46.00000000000003mm" viewBox="0 0 46.00000000000003 12.000000000000009" version="1.1" stroke="black" stroke-width=".1" fill="none" xmlns="http://www.w3.org/2000/svg">
<path fill="#000000" stroke="#000000" d="M46 9 L0 9 L0 3 L46 3 M2.47062 7.28163 L2.8453 7.44438 L3.25 7.5 L3.6547 7.44438 L4.02938 7.28163 L4.34625 7.02383 L4.58183 6.6901 L4.71863 6.30518 L4.7465 5.89764 L4.66339 5.49768 L4.47545 5.13498 L4.19663 4.83643 L3.8476 4.62418 L3.45425 4.51397 L3.04575 4.51397 L2.6524 4.62418 L2.30337 4.83643 L2.02455 5.13498 L1.83661 5.49768 L1.7535 5.89764 L1.78137 6.30518 L1.91817 6.6901 L2.15375 7.02383 z"/>
<path fill="#000000" stroke="#000000" d="M46.000000000000014 9 L46.000000000000014 9 L46.000000000000014 3 L46.000000000000014 3 z"/>
<path fill="#000000" stroke="#000000" d="M0 3.0000000000000044 L0 3.0000000000000044 L46 3.0000000000000044 L46 3.0000000000000044 z"/>
<path fill="#000000" stroke="#000000" d="M1.7534962556477804 5.897639221914661 L1.7534962556477804 5.897639221914661 L1.836608789961173 5.49767974855104 L1.836608789961173 5.49767974855104 z"/>
<path fill="#000000" stroke="#000000" d="M0 9 L46 9 L46 3 L0 3 M2.02455 5.13498 L2.30337 4.83643 L2.6524 4.62418 L3.04575 4.51397 L3.45425 4.51397 L3.8476 4.62418 L4.19663 4.83643 L4.47545 5.13498 L4.66339 5.49768 L4.7465 5.89764 L4.71863 6.30518 L4.58183 6.6901 L4.34625 7.02383 L4.02938 7.28163 L3.6547 7.44438 L3.25 7.5 L2.8453 7.44438 L2.47062 7.28163 L2.15375 7.02383 L1.91817 6.6901 L1.78137 6.30518 L1.7535 5.89764 L1.83661 5.49768 z"/>
<path fill="#000000" stroke="#000000" d="M0 9.000000000000004 L46 9.000000000000004 L46 9.000000000000004 L0 9.000000000000004 z"/>
<path fill="#000000" stroke="#000000" d="M1.4210854715202004e-14 3 L1.4210854715202004e-14 9 L1.4210854715202004e-14 9 L1.4210854715202004e-14 3 z"/>
<path fill="#000000" stroke="#000000" d="M3.2500000000000004 7.500000000000006 L3.2500000000000004 7.500000000000006 L3.654699361300705 7.4443753531175245 L3.654699361300705 7.4443753531175245 z"/>
<path fill="#000000" stroke="#000000" d="M4.029377939813509 7.281627467690618 L4.029377939813509 7.281627467690618 L4.346251432143754 7.023831760341154 L4.346251432143754 7.023831760341154 z"/>
<path fill="#000000" stroke="#000000" d="M4.346252499642708 7.023831764440494 L4.346252499642708 7.023831764440494 L4.581827398894444 6.690098163939207 L4.581827398894444 6.690098163939207 z"/>
<path fill="#000000" stroke="#000000" d="M4.7186264232053965 6.305179755340546 L4.7186264232053965 6.305179755340546 L4.746502892633722 5.897640197861567 L4.746502892633722 5.897640197861567 z"/>
<path fill="#000000" stroke="#000000" d="M4.475452825910908 5.134977360783449 L4.475452825910908 5.134977360783449 L4.196629495237159 4.836430471415584 L4.196629495237159 4.836430471415584 z"/>
<path fill="#000000" stroke="#000000" d="M3.454249717260598 4.51397100911014 L3.454249717260598 4.51397100911014 L3.8475993272164812 4.624182401195824 L3.8475993272164812 4.624182401195824 z"/>
<path fill="#000000" stroke="#000000" d="M4.1966291571747165 4.83643138596713 L4.1966291571747165 4.83643138596713 L3.8475990883121125 4.624181499206858 L3.8475990883121125 4.624181499206858 z"/>
<path fill="#000000" stroke="#000000" d="M4.7186278337052086 6.305179230098646 L4.7186278337052086 6.305179230098646 L4.581827300224399 6.690099040499521 L4.581827300224399 6.690099040499521 z"/>
<path fill="#000000" stroke="#000000" d="M4.029379026826338 7.2816277595295205 L4.029379026826338 7.2816277595295205 L3.654697744382623 7.444374807047966 L3.654697744382623 7.444374807047966 z"/>
<path fill="#000000" stroke="#000000" d="M4.663391210038854 5.497679748551034 L4.663391210038854 5.497679748551034 L4.746503744352246 5.897639221914655 L4.746503744352246 5.897639221914655 z"/>
<path fill="#000000" stroke="#000000" d="M4.475454012553177 5.134977920862527 L4.475454012553177 5.134977920862527 L4.663390852781487 5.497679558124249 L4.663390852781487 5.497679558124249 z"/>
<path fill="#000000" stroke="#000000" d="M2.024547174089107 5.134977360783463 L2.024547174089107 5.134977360783463 L2.3033705047628557 4.836430471415598 L2.3033705047628557 4.836430471415598 z"/>
<path fill="#000000" stroke="#000000" d="M3.04575 4.513971080945508 L3.04575 4.513971080945508 L3.45425 4.513971080945508 L3.45425 4.513971080945508 z"/>
<path fill="#000000" stroke="#000000" d="M2.6524006727835205 4.624182401195832 L2.6524006727835205 4.624182401195832 L3.0457502827394034 4.513971009110147 L3.0457502827394034 4.513971009110147 z"/>
<path fill="#000000" stroke="#000000" d="M2.3033708428252906 4.836431385967143 L2.3033708428252906 4.836431385967143 L2.6524009116878946 4.624181499206871 L2.6524009116878946 4.624181499206871 z"/>
<path fill="#000000" stroke="#000000" d="M1.8366091472185349 5.49767955812426 L1.8366091472185349 5.49767955812426 L2.024545987446844 5.134977920862538 L2.024545987446844 5.134977920862538 z"/>
<path fill="#000000" stroke="#000000" d="M1.7534971073663057 5.8976401978615645 L1.7534971073663057 5.8976401978615645 L1.7813735767946315 6.305179755340544 L1.7813735767946315 6.305179755340544 z"/>
<path fill="#000000" stroke="#000000" d="M1.9181726997756259 6.690099040499511 L1.9181726997756259 6.690099040499511 L1.7813721662948159 6.305179230098637 L1.7813721662948159 6.305179230098637 z"/>
<path fill="#000000" stroke="#000000" d="M2.845300638699295 7.44437535311752 L2.845300638699295 7.44437535311752 L3.2499999999999996 7.500000000000002 L3.2499999999999996 7.500000000000002 z"/>
<path fill="#000000" stroke="#000000" d="M2.1537475003573103 7.023831764440481 L2.1537475003573103 7.023831764440481 L1.9181726011055742 6.690098163939194 L1.9181726011055742 6.690098163939194 z"/>
<path fill="#000000" stroke="#000000" d="M2.4706220601865017 7.281627467690605 L2.4706220601865017 7.281627467690605 L2.1537485678562565 7.02383176034114 L2.1537485678562565 7.02383176034114 z"/>
<path fill="#000000" stroke="#000000" d="M2.4706209731736655 7.28162775952951 L2.4706209731736655 7.28162775952951 L2.845302255617381 7.444374807047956 L2.845302255617381 7.444374807047956 z"/>
<path fill="#000000" stroke="#000000" d="M46 9 L29.5 9 L29.5 -3 L46 -3 z"/>
<path fill="#000000" stroke="#000000" d="M46.000000000000014 9 L46.000000000000014 9 L46.000000000000014 -3 L46.000000000000014 -3 z"/>
<path fill="#000000" stroke="#000000" d="M46 -2.9999999999999956 L46 -2.9999999999999956 L29.5 -2.9999999999999956 L29.5 -2.9999999999999956 z"/>
<path fill="#000000" stroke="#000000" d="M29.500000000000014 9 L29.500000000000014 9 L29.500000000000014 -3 L29.500000000000014 -3 z"/>
<path fill="#000000" stroke="#000000" d="M29.5 9.000000000000004 L29.5 9.000000000000004 L46 9.000000000000004 L46 9.000000000000004 z"/>
<path fill="#000000" stroke="#000000" d="M29.5 9 L46 9 L46 -3 L29.5 -3 z"/>
</svg>