<?xml version="1.0" encoding="UTF-8"?>
<!-- Generated by jsxcad -->
<!DOCTYPE svg PUBLIC "-//W3C//DTD SVG 1.1 Tiny//EN" "http://www.w3.org/Graphics/SVG/1.1/DTD/svg11-tiny.dtd">
<svg baseProfile="tiny" height="11.750000000000009mm" width="46.00000000000003mm" viewBox="-23.000000000000014 -8.750000000000007 23.000000000000014 3.0000000000000018" version="1.1" stroke="black" stroke-width=".1" fill="none" xmlns="http://www.w3.org/2000/svg">
<path fill="#000000" stroke="#000000" d="M-20.154695156735535 13.194375931021707 L-20.154695156735535 13.194375931021707 L-20.52937592505315 13.031629106819741 L-20.52937592505315 13.031629106819741 L-20.491907848221388 13.047903789239937 z"/>
<path fill="#000000" stroke="#000000" d="M-20.52937592505315 13.031629106819741 L-20.846253946417182 12.77382971482799 L-20.846253946417182 12.77382971482799 L-20.81456614428078 12.799609654027167 L-20.52937592505315 13.031629106819741 z"/>
<path fill="#000000" stroke="#000000" d="M-20.846253946417185 12.773829714827986 L-21.08182782760356 12.440097556596735 L-21.08182782760356 12.440097556596735 L-21.058270439484925 12.47347077241986 L-20.846253946417185 12.773829714827986 z"/>
<path fill="#000000" stroke="#000000" d="M-20.11422564106198 13.199938337919537 L-19.749999999999996 13.250000000000009 L-19.749999999999996 13.250000000000009 L-20.154695156735535 13.194375931021707 L-20.154695156735535 13.194375931021707 z"/>
<path fill="#000000" stroke="#000000" d="M-21.171702560238987 11.287676161564475 L-21.246503153785806 11.647636379953001 L-21.246503153785806 11.647636379953001 L-21.16339138317823 11.247680581743527 L-21.16339138317823 11.247680581743527 z"/>
<path fill="#000000" stroke="#000000" d="M-21.08182782760356 12.440097556596735 L-21.218626131523482 12.055184019578956 L-21.218626131523482 12.055184019578956 L-21.20494630113149 12.093675373280735 L-21.08182782760356 12.440097556596735 z"/>
<path fill="#000000" stroke="#000000" d="M-21.218626131523482 12.055184019578958 L-21.218626131523482 12.055184019578958 L-21.246503153785806 11.647636379953001 L-21.246503153785806 11.647636379953001 L-21.243715451559574 11.688391143915597 z"/>
<path fill="#000000" stroke="#000000" d="M-18.970624074946848 13.03162910681974 L-19.345304843264458 13.194375931021705 L-19.345304843264458 13.194375931021705 L-19.307836766432697 13.178101248601509 L-18.970624074946848 13.03162910681974 z"/>
<path fill="#000000" stroke="#000000" d="M-21.16339138317823 11.247680581743529 L-21.16339138317823 11.247680581743529 L-20.97545483951566 10.884979516827707 L-20.97545483951566 10.884979516827707 L-20.99424849388192 10.921249623319289 z"/>
<path fill="#000000" stroke="#000000" d="M-20.97545483951566 10.884979516827705 L-20.97545483951566 10.884979516827705 L-20.69663191648908 10.586433063943378 L-20.69663191648908 10.586433063943378 L-20.724514208791735 10.61628770923181 z"/>
<path fill="#000000" stroke="#000000" d="M-20.696631916489075 10.586433063943378 L-20.696631916489075 10.586433063943378 L-20.34760163476936 10.374183047741829 L-20.34760163476936 10.374183047741829 L-20.382504662941333 10.395408049361983 z"/>
<path fill="#000000" stroke="#000000" d="M-20.347601634769358 10.374183047741829 L-20.347601634769358 10.374183047741829 L-19.95424997364437 10.263971080945511 L-19.95424997364437 10.263971080945511 L-19.993585139756867 10.274992277625143 z"/>
<path fill="#000000" stroke="#000000" d="M-19.95424997364437 10.263971080945511 L-19.95424997364437 10.263971080945511 L-19.545750026355627 10.263971080945511 L-19.545750026355627 10.263971080945511 L-19.586600021084504 10.263971080945511 z"/>
<path fill="#000000" stroke="#000000" d="M-19.545750026355627 10.263971080945511 L-19.545750026355627 10.263971080945511 L-19.152398365230635 10.374183047741829 L-19.152398365230635 10.374183047741829 L-19.191733531343136 10.363161851062197 z"/>
<path fill="#000000" stroke="#000000" d="M-18.552427452786993 10.855124871539275 L-18.803368083510918 10.586433063943378 L-18.803368083510918 10.586433063943378 L-18.524545160484337 10.884979516827705 L-18.524545160484337 10.884979516827705 z"/>
<path fill="#000000" stroke="#000000" d="M-18.524545160484337 10.884979516827707 L-18.524545160484337 10.884979516827707 L-18.336608616821767 11.247680581743527 L-18.336608616821767 11.247680581743527 L-18.355402271188023 11.211410475251947 z"/>
<path fill="#000000" stroke="#000000" d="M-18.336608616821767 11.247680581743527 L-18.336608616821767 11.247680581743527 L-18.25349684621419 11.647636379953001 L-18.25349684621419 11.647636379953001 L-18.26180802327495 11.607640800132053 z"/>
<path fill="#000000" stroke="#000000" d="M-18.65374605358281 12.773829714827988 L-18.65374605358281 12.773829714827988 L-18.970624074946848 13.031629106819741 L-18.970624074946848 13.031629106819741 L-18.938936272810444 13.005849167620566 z"/>
<path fill="#000000" stroke="#000000" d="M-18.25349684621419 11.647636379953001 L-18.281373868476514 12.055184019578958 L-18.281373868476514 12.055184019578958 L-18.27858616625028 12.014429255616362 L-18.25349684621419 11.647636379953001 z"/>
<path fill="#000000" stroke="#000000" d="M-18.281373868476514 12.055184019578958 L-18.418172172396435 12.440097556596735 L-18.418172172396435 12.440097556596735 L-18.404492342004442 12.401606202894957 L-18.281373868476514 12.055184019578958 z"/>
<path fill="#000000" stroke="#000000" d="M-19.152398365230635 10.37418304774183 L-19.152398365230635 10.37418304774183 L-18.803368083510918 10.586433063943378 L-18.803368083510918 10.586433063943378 L-18.83827111168289 10.565208062323224 z"/>
<path fill="#000000" stroke="#000000" d="M-18.418172172396435 12.440097556596735 L-18.418172172396435 12.440097556596735 L-18.65374605358281 12.773829714827988 L-18.65374605358281 12.773829714827988 L-18.63018866546417 12.740456499004862 z"/>
<path fill="#000000" stroke="#000000" d="M-19.345304843264458 13.194375931021707 L-19.749999999999996 13.250000000000007 L-19.749999999999996 13.250000000000007 L-19.709530484326443 13.244437593102178 L-19.345304843264458 13.194375931021707 z"/>
<path fill="#000000" stroke="#000000" d="M-23 14.750000000000009 L23 14.750000000000009 L23 14.750000000000009 L-23 14.750000000000009 z"/>
<path fill="#000000" stroke="#000000" d="M-23 8.750000000000009 L-23 14.750000000000009 L-23 14.750000000000009 L-23 8.750000000000009 z"/>
<path fill="#000000" stroke="#000000" d="M23 8.750000000000009 L-23 8.750000000000009 L-23 8.750000000000009 L23 8.750000000000009 z"/>
<path fill="#000000" stroke="#000000" d="M23 14.750000000000009 L23 8.750000000000009 L23 8.750000000000009 L23 14.750000000000009 z"/>
<path fill="#000000" stroke="#000000" d="M-23 8.750000000000007 L-23 14.750000000000007 L23 14.750000000000007 L23 8.750000000000007 M-21.243715451559574 11.688391143915597 L-21.246503153785806 11.647636379953001 L-21.171702560238987 11.287676161564475 L-21.16339138317823 11.247680581743527 L-20.99424849388192 10.921249623319289 L-20.97545483951566 10.884979516827705 L-20.724514208791735 10.61628770923181 L-20.69663191648908 10.586433063943378 L-20.382504662941333 10.395408049361983 L-20.34760163476936 10.374183047741827 L-19.993585139756867 10.274992277625143 L-19.95424997364437 10.263971080945511 L-19.586600021084504 10.263971080945511 L-19.545750026355627 10.263971080945511 L-19.191733531343136 10.363161851062195 L-19.152398365230635 10.374183047741827 L-18.83827111168289 10.565208062323222 L-18.803368083510918 10.586433063943378 L-18.552427452786993 10.855124871539273 L-18.524545160484337 10.884979516827705 L-18.355402271188023 11.211410475251947 L-18.336608616821767 11.247680581743527 L-18.26180802327495 11.607640800132053 L-18.25349684621419 11.647636379953001 L-18.27858616625028 12.014429255616362 L-18.281373868476514 12.055184019578958 L-18.404492342004442 12.401606202894957 L-18.418172172396435 12.440097556596735 L-18.630188665464175 12.740456499004862 L-18.65374605358281 12.773829714827988 L-18.938936272810444 13.005849167620564 L-18.970624074946848 13.03162910681974 L-19.3078367664327 13.178101248601509 L-19.34530484326446 13.194375931021705 L-19.709530484326443 13.244437593102177 L-19.749999999999996 13.250000000000007 L-20.11422564106198 13.199938337919535 L-20.154695156735535 13.194375931021705 L-20.491907848221388 13.047903789239935 L-20.52937592505315 13.03162910681974 L-20.814566144280782 12.799609654027163 L-20.846253946417185 12.773829714827988 L-21.058270439484925 12.47347077241986 L-21.08182782760356 12.440097556596735 L-21.20494630113149 12.093675373280734 L-21.218626131523482 12.055184019578958 z"/>
<path fill="#000000" stroke="#000000" d="M-23 14.750000000000007 L-23 8.750000000000007 L23 8.750000000000007 L23 14.750000000000007 M-21.246503153785806 11.647636379953001 L-21.218626131523482 12.055184019578958 L-21.08182782760356 12.440097556596735 L-20.846253946417185 12.773829714827988 L-20.52937592505315 13.03162910681974 L-20.154695156735535 13.194375931021705 L-19.749999999999996 13.250000000000007 L-19.34530484326446 13.194375931021705 L-18.970624074946848 13.03162910681974 L-18.65374605358281 12.773829714827988 L-18.418172172396435 12.440097556596735 L-18.281373868476514 12.055184019578958 L-18.25349684621419 11.647636379953001 L-18.336608616821767 11.247680581743527 L-18.524545160484337 10.884979516827705 L-18.803368083510918 10.586433063943378 L-19.152398365230635 10.374183047741827 L-19.545750026355627 10.263971080945511 L-19.95424997364437 10.263971080945511 L-20.34760163476936 10.374183047741827 L-20.69663191648908 10.586433063943378 L-20.97545483951566 10.884979516827705 L-21.16339138317823 11.247680581743527 z"/>
<path fill="#000000" stroke="#000000" d="M6.5 14.500000000000009 L23 14.500000000000009 L23 14.500000000000009 L6.5 14.500000000000009 z"/>
<path fill="#000000" stroke="#000000" d="M6.5 3.000000000000009 L6.5 14.500000000000009 L6.5 14.500000000000009 L6.5 3.000000000000009 z"/>
<path fill="#000000" stroke="#000000" d="M23 14.500000000000009 L23 3.000000000000009 L23 3.000000000000009 L23 14.500000000000009 z"/>
<path fill="#000000" stroke="#000000" d="M23 3.000000000000009 L6.5 3.000000000000009 L6.5 3.000000000000009 L23 3.000000000000009 z"/>
<path fill="#000000" stroke="#000000" d="M6.5 3.000000000000008 L6.5 14.500000000000005 L23 14.500000000000005 L23 3.000000000000008 z"/>
<path fill="#000000" stroke="#000000" d="M6.5 14.500000000000005 L6.5 3.000000000000008 L23 3.000000000000008 L23 14.500000000000005 z"/>
</svg>